<svg width="760" height="520" viewBox="0 0 760 520" fill="none" xmlns="http://www.w3.org/2000/svg">
  <defs>
    <linearGradient id="bgGrad" x1="56" y1="40" x2="700" y2="470" gradientUnits="userSpaceOnUse">
      <stop stop-color="#00326D"/>
      <stop offset="1" stop-color="#001E42"/>
    </linearGradient>
    <linearGradient id="cardGrad" x1="0" y1="0" x2="1" y2="1">
      <stop stop-color="#FFFFFF"/>
      <stop offset="1" stop-color="#F1F5F9"/>
    </linearGradient>
  </defs>

  <rect x="20" y="20" width="720" height="480" rx="44" fill="url(#bgGrad)"/>
  <circle cx="614" cy="118" r="56" fill="#F01E28" fill-opacity="0.18"/>
  <circle cx="144" cy="392" r="70" fill="#FFFFFF" fill-opacity="0.08"/>
  <circle cx="674" cy="410" r="44" fill="#F01E28" fill-opacity="0.15"/>

  <rect x="96" y="104" width="280" height="330" rx="28" fill="url(#cardGrad)"/>
  <rect x="120" y="138" width="160" height="20" rx="10" fill="#0A3C78" fill-opacity="0.14"/>
  <rect x="120" y="172" width="230" height="12" rx="6" fill="#94A3B8"/>
  <rect x="120" y="196" width="210" height="12" rx="6" fill="#CBD5E1"/>
  <rect x="120" y="220" width="220" height="12" rx="6" fill="#CBD5E1"/>
  <rect x="120" y="252" width="110" height="10" rx="5" fill="#0A3C78" fill-opacity="0.2"/>
  <rect x="120" y="272" width="180" height="10" rx="5" fill="#CBD5E1"/>
  <rect x="120" y="292" width="170" height="10" rx="5" fill="#CBD5E1"/>
  <rect x="120" y="332" width="160" height="44" rx="14" fill="#E51B22"/>

  <rect x="414" y="120" width="250" height="126" rx="22" fill="#FFFFFF" fill-opacity="0.95"/>
  <rect x="438" y="150" width="98" height="12" rx="6" fill="#00326D" fill-opacity="0.26"/>
  <rect x="438" y="172" width="190" height="10" rx="5" fill="#CBD5E1"/>
  <rect x="438" y="190" width="170" height="10" rx="5" fill="#CBD5E1"/>
  <circle cx="604" cy="176" r="26" fill="#E51B22"/>
  <path d="M594 176L601 183L614 170" stroke="white" stroke-width="4.5" stroke-linecap="round" stroke-linejoin="round"/>

  <rect x="414" y="272" width="250" height="126" rx="22" fill="#FFFFFF" fill-opacity="0.95"/>
  <rect x="438" y="302" width="128" height="12" rx="6" fill="#00326D" fill-opacity="0.26"/>
  <rect x="438" y="324" width="190" height="10" rx="5" fill="#CBD5E1"/>
  <rect x="438" y="342" width="170" height="10" rx="5" fill="#CBD5E1"/>
  <rect x="438" y="362" width="122" height="14" rx="7" fill="#0A3C78" fill-opacity="0.2"/>

  <path d="M376 196C396 196 402 196 414 196" stroke="#F01E28" stroke-width="8" stroke-linecap="round"/>
  <path d="M664 196C676 196 688 196 698 196" stroke="#F01E28" stroke-width="8" stroke-linecap="round"/>
  <path d="M664 334C676 334 688 334 698 334" stroke="#F01E28" stroke-width="8" stroke-linecap="round"/>

  <text x="126" y="360" fill="white" font-family="Vazirmatn, Segoe UI, sans-serif" font-size="20" font-weight="800">ارسال رزومه</text>
</svg>
